<?xml version="1.0" encoding="UTF-8"?>
<svg id="Layer_1" data-name="Layer 1" xmlns="http://www.w3.org/2000/svg" viewBox="0 0 671.2 206.77">
  <defs>
    <style>
      .cls-1 {
        fill: #600;
      }

      .cls-2 {
        fill: #fff;
      }
    </style>
  </defs>
  <rect class="cls-1" x="473.19" width="198.01" height="128"/>
  <path class="cls-2" d="M520.1,91.57c0,15.71,1.33,16.16,8.31,17.05l3.26.44c1.04,1.04.89,3.7-.3,4.3-6.53-.3-13.2-.44-19.73-.44s-13.5.15-20.03.44c-1.19-.59-1.33-3.26-.3-4.3l3.26-.44c6.97-.89,8.31-1.33,8.31-17.05v-55.14c0-15.71-1.33-16.16-8.31-17.04l-3.26-.45c-1.04-1.04-.89-3.7.3-4.3,6.53.3,13.2.44,20.03.44s13.2-.15,19.73-.44c1.19.59,1.33,3.26.3,4.3l-3.26.45c-6.97.89-8.31,1.33-8.31,17.04v55.14Z"/>
  <path class="cls-2" d="M552.13,18.94c-1.19-1.18-.89-3.7.44-4.3,6.68.3,12.46.44,19.28.44,7.86,0,14.39-.15,18.54-.44,1.33.59,1.33,3.26.3,4.3l-2.82.3c-2.97.3-4.9.89-4.9,1.93,0,1.19.74,2.82,3.71,7.41,3.71,5.63,14.09,21.19,17.36,25.35,3.56-4.15,16.76-23.42,20.17-28.46,1.19-1.78,1.78-2.96,1.93-3.85-.3-1.04-2.08-1.33-4.45-1.93l-4.3-.74c-1.33-1.04-1.33-3.41.3-4.3,5.78.3,10.53.44,15.58.44s9.05-.15,14.39-.44c1.34.74,1.48,2.96.45,4.3l-4.3.89c-5.93,1.19-8.31,3.41-14.83,11.41-5.78,7.12-12.76,15.71-18.25,24.01-1.63,2.37-2.23,3.71-2.23,4.3,0,.74.59,2.22,2.52,5.19,8.9,12.89,18.1,26.53,24.92,35.42,4.15,5.63,7.42,7.41,13.2,8.3l3.71.59c1.04.89,1.04,3.56-.3,4.3-7.12-.3-13.5-.44-20.92-.44s-13.65.15-21.06.44c-1.19-.59-1.63-3.41-.3-4.3l5.34-1.04c1.93-.44,3.12-.89,3.12-1.93s-1.04-3.26-4.3-8.15l-2.52-3.71c-3.71-5.33-8.6-12.75-14.83-21.49-6.08,8-14.69,20.6-20.32,29.64-1.33,2.07-1.93,3.26-1.93,4.3s2.37,1.48,4.45,1.78l3.86.59c1.19,1.04,1.04,3.85-.3,4.3-5.04-.3-11.13-.44-17.21-.44-5.04,0-9.94.15-14.69.44-1.33-1.04-1.33-3.11-.59-4.3l4.01-.74c6.38-1.19,9.79-3.11,15.58-10.37l20.62-26.53c1.33-1.78,2.23-3.56,2.23-4.3s-.44-2.22-1.78-4.15c-6.97-9.93-16.47-24.9-22.1-32.91-4.45-6.37-7.42-9.04-12.02-10.08l-4.75-1.04Z"/>
  <path d="M88.82,40.68c-1.01,1.15-3.6,1.29-4.61.29-2.45-9.07-8.92-21.02-27.93-21.02s-36.71,12.96-36.71,42.47,19.15,45.63,37.71,45.63,26.05-12.09,30.09-21.45c1.3-1.3,3.6-.72,4.32.58-1.01,9.64-4.89,19.15-6.91,21.88-1.73.29-3.45.86-5.04,1.29-3.17,1.01-13.1,3.46-22.46,3.46-14.25,0-26.49-2.88-36.85-9.64C8.78,96.53,0,83.43,0,64.58c0-16.84,7.48-29.94,18.14-38.15,10.65-8.06,25.19-12.23,39.73-12.23,8.21,0,18.14,1.44,24.9,3.17l4.03.86c.29,3.31.58,11.8,2.02,22.46Z"/>
  <path d="M142.07,87.75c0,7.2.29,12.38,2.45,14.83,1.73,2.02,4.03,3.17,15.55,3.17,15.98,0,18.28-.72,24.9-15.55,1.44-.72,3.74-.29,4.46.86-1.15,6.05-4.32,16.98-6.05,20.87-6.05-.29-18.43-.43-34.55-.43h-14.97c-7.34,0-14.54.14-20.58.43-1.15-.58-1.58-3.45-.29-4.17l4.32-.72c6.77-1.15,8.06-1.29,8.06-16.27v-53.55c0-14.97-1.3-15.4-8.06-16.41l-4.03-.58c-1.01-.72-1.01-3.6.29-4.17,7.2.29,13.68.43,20.3.43s12.81-.14,19.15-.43c1.3.58,1.44,3.46.29,4.17l-3.17.58c-6.77,1.15-8.06,1.44-8.06,16.41v50.53Z"/>
  <path d="M234.18,77.17c-3.74,0-3.6,0-4.89,3.89l-5.76,17.27c-2.88,8.49-1.01,8.78,4.32,9.64l4.17.72c1.01,1.01.86,3.6-.29,4.17-4.61-.29-10.08-.29-15.98-.43-4.75,0-9.21.14-14.25.43-1.01-.72-1.15-2.88-.14-4.17l4.32-.72c4.17-.72,5.76-1.87,7.92-6.62,1.73-3.74,4.03-9.79,7.05-17.56l19.72-51.25c1.73-4.61,3.17-8.06,2.74-10.51,5.04-1.01,9.79-6.91,10.08-6.91,1.15,0,1.87.43,2.45,1.15,2.3,6.48,4.17,13.24,6.48,19.72l20.73,60.32c3.31,9.64,4.03,10.51,11.37,11.95l2.16.43c1.15,1.01,1.15,3.46.14,4.17-5.9-.29-11.23-.43-18.71-.43-6.19,0-12.52.29-17.56.43-1.15-.72-1.3-3.31-.43-4.17l3.17-.43c5.18-.72,5.9-1.58,3.74-7.63l-6.77-19.58c-1.3-3.89-1.87-3.89-5.9-3.89h-19.87ZM252.18,70.69c4.03,0,4.61-.29,3.45-3.74l-6.05-17.27c-2.59-7.63-3.45-10.94-4.17-11.95h-.29c-.58,1.01-2.02,5.18-4.46,11.95l-6.48,16.84c-1.44,4.17-1.15,4.17,2.3,4.17h15.69Z"/>
  <path d="M319.25,107.76c-2.59-3.02-4.46-12.96-4.32-21.88.86-1.44,3.31-1.58,4.46-.58,2.59,7.34,10.36,22.74,24.47,22.74,10.94,0,17.13-6.62,17.13-15.4,0-8.21-3.89-14.83-14.68-20.87l-6.19-3.45c-10.8-6.05-20.3-14.83-20.3-27.78,0-14.25,10.65-26.34,31.67-26.34,7.49,0,12.96,1.73,19.72,3.02,1.58,3.17,3.02,12.67,3.02,19.43-.72,1.3-3.31,1.44-4.61.43-2.16-7.48-7.2-17.13-19.43-17.13-11.52,0-16.27,7.48-16.27,15.11,0,6.05,4.17,12.52,13.68,17.56l8.92,4.75c9.36,4.89,19.72,13.82,19.72,28.36,0,16.41-12.52,28.07-33.4,28.07-13.24,0-20.73-4.32-23.61-6.05Z"/>
  <path d="M406.18,107.76c-2.59-3.02-4.46-12.96-4.32-21.88.86-1.44,3.31-1.58,4.46-.58,2.59,7.34,10.36,22.74,24.47,22.74,10.94,0,17.13-6.62,17.13-15.4,0-8.21-3.89-14.83-14.68-20.87l-6.19-3.45c-10.8-6.05-20.3-14.83-20.3-27.78,0-14.25,10.65-26.34,31.67-26.34,7.48,0,12.96,1.73,19.72,3.02,1.58,3.17,3.02,12.67,3.02,19.43-.72,1.3-3.31,1.44-4.61.43-2.16-7.48-7.2-17.13-19.43-17.13-11.52,0-16.27,7.48-16.27,15.11,0,6.05,4.17,12.52,13.68,17.56l8.92,4.75c9.36,4.89,19.72,13.82,19.72,28.36,0,16.41-12.52,28.07-33.4,28.07-13.24,0-20.73-4.32-23.61-6.05Z"/>
  <g>
    <path d="M56.32,161.05c-.64.72-2.28.81-2.92.18-1.55-5.66-5.66-13.13-17.71-13.13s-23.27,8.09-23.27,26.53,12.14,28.5,23.91,28.5,16.52-7.55,19.08-13.4c.82-.81,2.28-.45,2.74.36-.64,6.02-3.1,11.96-4.38,13.67-1.09.18-2.19.54-3.19.81-2.01.63-8.31,2.16-14.24,2.16-9.04,0-16.79-1.8-23.37-6.02-7.39-4.77-12.96-12.95-12.96-24.73,0-10.52,4.75-18.7,11.5-23.83,6.76-5.04,15.97-7.64,25.19-7.64,5.2,0,11.5.9,15.79,1.98l2.56.54c.18,2.07.37,7.37,1.28,14.03Z"/>
    <path d="M137.09,175.79c0,17.71-13.69,30.93-32.13,30.93-20.63,0-32.49-14.3-32.49-30.3,0-18.34,13.51-31.92,32.68-31.92,21.08,0,31.95,14.92,31.95,31.29ZM84.88,173.81c0,12.41,5.38,29.31,20.99,29.31,10.4,0,18.8-7.64,18.8-25.72,0-13.58-6.21-29.31-20.72-29.31-9.13,0-19.08,6.56-19.08,25.72Z"/>
    <path d="M211.1,189.45c0,2.7,0,13.31.27,15.38-.73.99-2.37,1.35-3.47,1.26-1.46-1.89-3.74-4.5-10.31-11.87l-21.36-24.01c-5.84-6.65-8.85-9.98-10.41-11.33-.27,0-.27.99-.27,5.75v17.53c0,6.74.09,15.02,1.64,17.71.82,1.35,2.37,1.98,4.66,2.25l2.01.27c.82.63.73,2.34-.18,2.61-3.38-.18-6.94-.27-10.41-.27-3.83,0-6.3.09-9.49.27-.73-.45-.91-1.98-.18-2.61l2.01-.45c1.73-.36,3.38-.63,4.02-2.07,1.19-2.79,1.19-10.61,1.19-17.71v-21.31c0-7.01.09-8.45-3.01-11.06-1-.81-3.56-1.53-4.84-1.8l-1.37-.27c-.64-.54-.55-2.34.37-2.61,3.47.36,8.49.27,10.77.27,1.92,0,4.11-.09,6.3-.27,1.55,3.87,11.5,15.2,14.7,18.61l9.13,9.71c3.83,4.14,12.32,13.67,13.24,14.21.27-.27.27-.72.27-2.16v-17.53c0-6.74-.09-15.02-1.73-17.71-.82-1.35-2.28-1.98-4.56-2.25l-2.1-.27c-.82-.63-.73-2.34.18-2.61,3.56.18,6.94.27,10.5.27,3.93,0,6.3-.09,9.59-.27.73.45.91,1.98.18,2.61l-2.1.45c-1.73.36-3.29.63-3.92,2.07-1.28,2.79-1.28,10.61-1.28,17.71v21.49Z"/>
    <path d="M236.47,202.95c-1.64-1.89-2.83-8.09-2.74-13.67.55-.9,2.1-.99,2.83-.36,1.64,4.59,6.57,14.21,15.52,14.21,6.94,0,10.86-4.14,10.86-9.62,0-5.13-2.46-9.26-9.31-13.04l-3.92-2.16c-6.85-3.78-12.87-9.26-12.87-17.35,0-8.9,6.75-16.45,20.08-16.45,4.75,0,8.21,1.08,12.5,1.89,1,1.98,1.92,7.91,1.92,12.14-.46.81-2.1.9-2.92.27-1.37-4.68-4.56-10.7-12.32-10.7-7.3,0-10.31,4.68-10.31,9.44,0,3.78,2.65,7.82,8.67,10.97l5.66,2.97c5.93,3.06,12.51,8.63,12.51,17.71,0,10.25-7.94,17.53-21.18,17.53-8.4,0-13.14-2.7-14.97-3.78Z"/>
    <path d="M295.79,158.3c0-9.53-.82-9.71-5.11-10.43l-1.55-.27c-.64-.63-.55-2.16.18-2.52,3.65.18,7.76.27,11.77.27s8.21-.09,12.23-.27c.73.36.82,1.89.18,2.52l-2.01.27c-4.29.54-5.11.9-5.11,10.43v20.59c0,12.41,3.83,22.84,16.52,22.84,11.96,0,16.89-8.9,16.89-22.57v-11.24c0-6.74-.09-15.11-1.73-17.71-.82-1.35-2.28-1.98-4.56-2.34l-1.82-.27c-.82-.63-.73-2.25.18-2.52,3.1.18,6.57.27,10.13.27,3.83,0,6.3-.09,9.67-.27.73.45.91,1.89.18,2.52l-2.01.45c-1.73.36-3.38.72-4.02,2.16-1.28,2.7-1.28,10.61-1.28,17.71v10.7c0,8.18-1.28,15.74-6.02,20.77-4.75,5.04-11.59,6.74-17.89,6.74-8.58,0-14.6-1.8-18.8-5.75-4.11-3.87-6.02-10.16-6.02-19.24v-22.84Z"/>
    <path d="M383.96,190.45c0,4.5.18,7.73,1.55,9.26,1.1,1.26,2.56,1.98,9.86,1.98,10.13,0,11.59-.45,15.79-9.71.91-.45,2.37-.18,2.83.54-.73,3.78-2.74,10.61-3.83,13.04-3.83-.18-11.68-.27-21.91-.27h-9.49c-4.66,0-9.22.09-13.05.27-.73-.36-1-2.16-.18-2.61l2.74-.45c4.29-.72,5.11-.81,5.11-10.16v-33.45c0-9.35-.82-9.62-5.11-10.25l-2.56-.36c-.64-.45-.64-2.25.18-2.61,4.56.18,8.67.27,12.87.27s8.12-.09,12.14-.27c.82.36.91,2.16.18,2.61l-2.01.36c-4.29.72-5.11.9-5.11,10.25v31.56Z"/>
    <path d="M438.08,154.71c0-3.78-.09-3.96-2.46-3.96h-5.11c-8.4,0-10.86.99-14.24,8.27-.64.54-2.56.27-2.92-.63,1.55-4.86,2.92-10.43,3.56-13.58.18-.27.55-.36,1-.36.37,0,.73.09.91.36.46,2.25,1.73,2.34,7.94,2.34h37.24c4.47,0,5.84-.27,6.94-2.34.37-.18.73-.36,1.1-.36.55,0,1,.18,1.19.45-.91,3.69-1.64,11.42-1.37,14.3-.46.72-2.01.9-2.83.27-1.19-7.01-2.92-8.72-12.69-8.72h-5.2c-2.37,0-2.46.18-2.46,3.96v38.84c0,9.53.82,9.8,5.11,10.25l3.29.36c.64.63.55,2.25-.18,2.61-5.29-.18-9.4-.27-13.42-.27s-8.31.09-14.15.27c-.73-.36-.82-2.16-.18-2.61l3.83-.45c4.29-.54,5.11-.63,5.11-10.16v-38.84Z"/>
    <path d="M504.8,192.34c0,9.53.82,9.8,5.11,10.34l2.01.27c.64.63.55,2.25-.18,2.61-4.02-.18-8.12-.27-12.14-.27s-8.31.09-12.32.27c-.73-.36-.82-1.98-.18-2.61l2.01-.27c4.29-.54,5.11-.81,5.11-10.34v-33.45c0-9.53-.82-9.8-5.11-10.34l-2.01-.27c-.64-.63-.55-2.25.18-2.61,4.02.18,8.12.27,12.32.27s8.12-.09,12.14-.27c.73.36.82,1.98.18,2.61l-2.01.27c-4.29.54-5.11.81-5.11,10.34v33.45Z"/>
    <path d="M585.84,189.45c0,2.7,0,13.31.27,15.38-.73.99-2.37,1.35-3.47,1.26-1.46-1.89-3.74-4.5-10.31-11.87l-21.36-24.01c-5.84-6.65-8.85-9.98-10.41-11.33-.27,0-.27.99-.27,5.75v17.53c0,6.74.09,15.02,1.64,17.71.82,1.35,2.37,1.98,4.66,2.25l2.01.27c.82.63.73,2.34-.18,2.61-3.38-.18-6.94-.27-10.41-.27-3.83,0-6.3.09-9.49.27-.73-.45-.91-1.98-.18-2.61l2.01-.45c1.73-.36,3.38-.63,4.02-2.07,1.19-2.79,1.19-10.61,1.19-17.71v-21.31c0-7.01.09-8.45-3.01-11.06-1-.81-3.56-1.53-4.84-1.8l-1.37-.27c-.64-.54-.55-2.34.37-2.61,3.47.36,8.49.27,10.77.27,1.92,0,4.11-.09,6.3-.27,1.55,3.87,11.5,15.2,14.7,18.61l9.13,9.71c3.83,4.14,12.32,13.67,13.24,14.21.27-.27.27-.72.27-2.16v-17.53c0-6.74-.09-15.02-1.73-17.71-.82-1.35-2.28-1.98-4.56-2.25l-2.1-.27c-.82-.63-.73-2.34.18-2.61,3.56.18,6.94.27,10.5.27,3.92,0,6.3-.09,9.58-.27.73.45.91,1.98.18,2.61l-2.1.45c-1.74.36-3.29.63-3.92,2.07-1.28,2.79-1.28,10.61-1.28,17.71v21.49Z"/>
    <path d="M665.06,195.93c0,3.15.46,5.48,2.19,6.29.27.36.27,1.08-.09,1.35-1.01,0-2.65.36-4.38.72-5.66,1.35-12.5,2.43-17.71,2.43-10.95,0-21.27-2.88-28.11-9.89-5.38-5.49-8.03-13.04-8.03-20.59s2.65-15.29,8.4-21.13c6.48-6.74,16.43-10.61,29.12-10.61,4.29,0,8.95.72,12.14,1.35,2.1.45,4.75.81,5.84.81.09,2.7.73,7.28,1.19,14.3-.46.9-2.46.99-2.92.18-2.01-8.72-8.49-13.04-17.52-13.04-16.07,0-23.82,11.42-23.82,26.7,0,7.19,1.64,14.93,6.57,20.68,4.93,5.75,12.23,7.64,17.62,7.64,4.38,0,7.03-.72,8.13-2.07.55-.81.82-2.43.82-5.66v-3.24c0-6.38-.09-6.92-6.21-7.91l-3.29-.54c-.64-.63-.64-2.16.09-2.61,3.56.18,7.94.27,14.24.27,4.11,0,7.21-.09,11.14-.27.91.45,1.01,1.98.18,2.61l-1.64.27c-3.38.54-3.92,1.26-3.92,6.74v5.22Z"/>
  </g>
</svg>