<?xml version="1.0" encoding="UTF-8"?>
<svg id="Layer_1" data-name="Layer 1" xmlns="http://www.w3.org/2000/svg" viewBox="0 0 1296.41 256">
  <defs>
    <style>
      .cls-1 {
        fill: #600;
      }

      .cls-2 {
        fill: #fff;
      }
    </style>
  </defs>
  <rect class="cls-1" x="188.98" width="396.01" height="256"/>
  <path d="M183.05,79.98c-2.08,2.37-7.42,2.67-9.49.59-5.04-18.67-18.39-43.28-57.56-43.28S40.35,63.97,40.35,124.74s39.46,93.96,77.73,93.96,53.7-24.9,62.01-44.17c2.67-2.67,7.42-1.48,8.9,1.19-2.08,19.86-10.09,39.43-14.24,45.06-3.56.59-7.12,1.78-10.38,2.67-6.53,2.07-27,7.12-46.28,7.12-29.37,0-54.59-5.93-75.95-19.86C18.1,194.99,0,168.02,0,129.19c0-34.68,15.43-61.66,37.38-78.56,21.95-16.6,51.92-25.19,81.88-25.19,16.91,0,37.38,2.96,51.33,6.52l8.31,1.78c.59,6.82,1.19,24.31,4.15,46.24Z"/>
  <path class="cls-2" d="M287.8,183.14c0,31.42,2.67,32.31,16.61,34.09l6.53.89c2.08,2.07,1.78,7.41-.59,8.6-13.05-.59-26.4-.89-39.46-.89s-27,.3-40.05.89c-2.37-1.19-2.67-6.52-.59-8.6l6.53-.89c13.94-1.78,16.61-2.67,16.61-34.09v-110.27c0-31.42-2.67-32.31-16.61-34.09l-6.53-.89c-2.08-2.07-1.78-7.41.59-8.6,13.05.59,26.4.89,40.05.89s26.4-.29,39.46-.89c2.37,1.19,2.67,6.52.59,8.6l-6.53.89c-13.94,1.78-16.61,2.67-16.61,34.09v110.27Z"/>
  <path class="cls-2" d="M351.86,37.88c-2.37-2.37-1.78-7.41.89-8.6,13.35.59,24.92.89,38.57.89,15.72,0,28.78-.29,37.09-.89,2.67,1.19,2.67,6.52.59,8.6l-5.64.59c-5.93.59-9.79,1.78-9.79,3.85,0,2.37,1.48,5.63,7.42,14.82,7.42,11.26,28.18,42.39,34.71,50.69,7.12-8.3,33.52-46.84,40.35-56.91,2.37-3.56,3.56-5.93,3.86-7.71-.59-2.08-4.15-2.67-8.9-3.86l-8.6-1.48c-2.67-2.07-2.67-6.81.59-8.6,11.57.59,21.06.89,31.15.89s18.1-.29,28.78-.89c2.67,1.48,2.97,5.93.89,8.6l-8.6,1.78c-11.87,2.37-16.61,6.82-29.67,22.82-11.57,14.23-25.51,31.42-36.49,48.02-3.26,4.74-4.45,7.41-4.45,8.6,0,1.48,1.19,4.45,5.04,10.37,17.8,25.79,36.19,53.06,49.84,70.85,8.31,11.26,14.84,14.82,26.4,16.6l7.42,1.19c2.08,1.78,2.08,7.12-.59,8.6-14.24-.59-27-.89-41.83-.89s-27.29.3-42.13.89c-2.37-1.19-3.26-6.82-.59-8.6l10.68-2.07c3.86-.89,6.23-1.78,6.23-3.86s-2.08-6.52-8.6-16.3l-5.04-7.41c-7.42-10.67-17.21-25.49-29.67-42.98-12.17,16.01-29.37,41.2-40.65,59.29-2.67,4.15-3.86,6.52-3.86,8.6s4.75,2.97,8.9,3.56l7.72,1.19c2.37,2.07,2.08,7.71-.59,8.6-10.09-.59-22.25-.89-34.42-.89-10.09,0-19.88.3-29.37.89-2.67-2.07-2.67-6.22-1.19-8.6l8.01-1.48c12.76-2.37,19.58-6.22,31.15-20.75l41.24-53.06c2.67-3.55,4.45-7.11,4.45-8.6s-.89-4.45-3.56-8.3c-13.94-19.86-32.93-49.8-44.2-65.81-8.9-12.74-14.84-18.08-24.03-20.15l-9.49-2.08Z"/>
  <path d="M768.05,79.98c-2.08,2.37-7.42,2.67-9.49.59-5.04-18.67-18.39-43.28-57.56-43.28s-75.65,26.68-75.65,87.45,39.46,93.96,77.73,93.96,53.7-24.9,62.01-44.17c2.67-2.67,7.42-1.48,8.9,1.19-2.08,19.86-10.09,39.43-14.24,45.06-3.56.59-7.12,1.78-10.38,2.67-6.53,2.07-27,7.12-46.28,7.12-29.37,0-54.59-5.93-75.95-19.86-24.03-15.71-42.13-42.69-42.13-81.52,0-34.68,15.43-61.66,37.38-78.56,21.95-16.6,51.92-25.19,81.88-25.19,16.91,0,37.38,2.96,51.33,6.52l8.31,1.78c.59,6.82,1.19,24.31,4.15,46.24Z"/>
  <path d="M1030.58,128.59c0,58.4-44.5,101.97-104.43,101.97-67.05,0-105.62-47.13-105.62-99.9,0-60.47,43.91-105.23,106.21-105.23,68.54,0,103.84,49.2,103.84,103.16ZM860.88,122.07c0,40.91,17.5,96.63,68.23,96.63,33.82,0,61.12-25.19,61.12-84.78,0-44.76-20.17-96.63-67.35-96.63-29.67,0-62,21.64-62,84.78Z"/>
  <path d="M1271.16,175.43c0,8.89,0,43.87.89,50.69-2.37,3.26-7.72,4.45-11.27,4.15-4.75-6.22-12.17-14.82-33.52-39.13l-69.42-79.15c-18.98-21.93-28.78-32.91-33.82-37.35-.89,0-.89,3.26-.89,18.97v57.81c0,22.23.3,49.5,5.34,58.39,2.67,4.45,7.72,6.52,15.14,7.41l6.53.89c2.66,2.07,2.37,7.71-.6,8.6-10.98-.59-22.55-.89-33.82-.89-12.46,0-20.47.3-30.85.89-2.37-1.48-2.97-6.52-.6-8.6l6.53-1.48c5.64-1.19,10.98-2.07,13.05-6.82,3.86-9.19,3.86-34.98,3.86-58.39v-70.25c0-23.12.29-27.86-9.79-36.46-3.27-2.67-11.57-5.04-15.72-5.93l-4.45-.89c-2.08-1.78-1.78-7.71,1.18-8.6,11.27,1.19,27.59.89,35.01.89,6.23,0,13.35-.29,20.47-.89,5.04,12.75,37.38,50.1,47.76,61.36l29.67,32.01c12.46,13.64,40.05,45.06,43.02,46.84.89-.89.89-2.37.89-7.11v-57.8c0-22.23-.3-49.51-5.63-58.4-2.67-4.45-7.42-6.52-14.84-7.41l-6.82-.89c-2.67-2.07-2.37-7.71.59-8.6,11.57.59,22.55.89,34.12.89,12.75,0,20.47-.29,31.15-.89,2.37,1.48,2.97,6.52.6,8.6l-6.82,1.48c-5.64,1.19-10.68,2.07-12.75,6.82-4.16,9.19-4.16,34.98-4.16,58.4v70.84Z"/>
</svg>