<?xml version="1.0" encoding="UTF-8"?>
<svg id="Layer_1" data-name="Layer 1" xmlns="http://www.w3.org/2000/svg" viewBox="0 0 396.01 256">
  <defs>
    <style>
      .cls-1 {
        fill: #600;
      }

      .cls-2 {
        fill: #fff;
      }
    </style>
  </defs>
  <rect class="cls-1" width="396.01" height="256"/>
  <path class="cls-2" d="M98.81,183.14c0,31.42,2.67,32.31,16.61,34.09l6.53.89c2.08,2.07,1.78,7.41-.59,8.6-13.05-.59-26.4-.89-39.46-.89s-27,.3-40.05.89c-2.37-1.19-2.67-6.52-.59-8.6l6.53-.89c13.94-1.78,16.61-2.67,16.61-34.09v-110.27c0-31.42-2.67-32.31-16.61-34.09l-6.53-.89c-2.08-2.07-1.78-7.41.59-8.6,13.05.59,26.4.89,40.05.89s26.4-.29,39.46-.89c2.37,1.19,2.67,6.52.59,8.6l-6.53.89c-13.94,1.78-16.61,2.67-16.61,34.09v110.27Z"/>
  <path class="cls-2" d="M162.88,37.88c-2.37-2.37-1.78-7.41.89-8.6,13.35.59,24.92.89,38.57.89,15.72,0,28.78-.29,37.09-.89,2.67,1.19,2.67,6.52.59,8.6l-5.64.59c-5.93.59-9.79,1.78-9.79,3.85,0,2.37,1.48,5.63,7.42,14.82,7.42,11.26,28.18,42.39,34.71,50.69,7.12-8.3,33.52-46.84,40.35-56.91,2.37-3.56,3.56-5.93,3.86-7.71-.59-2.08-4.15-2.67-8.9-3.86l-8.6-1.48c-2.67-2.07-2.67-6.81.59-8.6,11.57.59,21.06.89,31.15.89s18.1-.29,28.78-.89c2.67,1.48,2.97,5.93.89,8.6l-8.6,1.78c-11.87,2.37-16.61,6.82-29.67,22.82-11.57,14.23-25.51,31.42-36.49,48.02-3.26,4.74-4.45,7.41-4.45,8.6,0,1.48,1.19,4.45,5.04,10.37,17.8,25.79,36.19,53.06,49.84,70.85,8.31,11.26,14.84,14.82,26.4,16.6l7.42,1.19c2.08,1.78,2.08,7.12-.59,8.6-14.24-.59-27-.89-41.83-.89s-27.29.3-42.13.89c-2.37-1.19-3.26-6.82-.59-8.6l10.68-2.07c3.86-.89,6.23-1.78,6.23-3.86s-2.08-6.52-8.6-16.3l-5.04-7.41c-7.42-10.67-17.21-25.49-29.67-42.98-12.17,16.01-29.37,41.2-40.65,59.29-2.67,4.15-3.86,6.52-3.86,8.6s4.75,2.97,8.9,3.56l7.72,1.19c2.37,2.07,2.08,7.71-.59,8.6-10.09-.59-22.25-.89-34.42-.89-10.09,0-19.88.3-29.37.89-2.67-2.07-2.67-6.22-1.19-8.6l8.01-1.48c12.76-2.37,19.58-6.22,31.15-20.75l41.24-53.06c2.67-3.55,4.45-7.11,4.45-8.6s-.89-4.45-3.56-8.3c-13.94-19.86-32.93-49.8-44.2-65.81-8.9-12.74-14.84-18.08-24.03-20.15l-9.49-2.08Z"/>
</svg>