<?xml version="1.0" encoding="UTF-8"?>
<svg id="Layer_1" data-name="Layer 1" xmlns="http://www.w3.org/2000/svg" viewBox="0 0 661.2 206.77">
  <defs>
    <style>
      .cls-1 {
        fill: #600;
      }

      .cls-2 {
        fill: #fff;
      }
    </style>
  </defs>
  <rect class="cls-1" x="463.19" width="198.01" height="128"/>
  <path class="cls-2" d="M510.1,91.57c0,15.71,1.33,16.16,8.31,17.05l3.26.44c1.04,1.04.89,3.7-.3,4.3-6.53-.3-13.2-.44-19.73-.44s-13.5.15-20.03.44c-1.19-.59-1.33-3.26-.3-4.3l3.26-.44c6.97-.89,8.31-1.33,8.31-17.05v-55.14c0-15.71-1.33-16.16-8.31-17.04l-3.26-.45c-1.04-1.04-.89-3.7.3-4.3,6.53.3,13.2.44,20.03.44s13.2-.15,19.73-.44c1.19.59,1.33,3.26.3,4.3l-3.26.45c-6.97.89-8.31,1.33-8.31,17.04v55.14Z"/>
  <path class="cls-2" d="M542.13,18.94c-1.19-1.18-.89-3.7.44-4.3,6.68.3,12.46.44,19.28.44,7.86,0,14.39-.15,18.54-.44,1.33.59,1.33,3.26.3,4.3l-2.82.3c-2.97.3-4.9.89-4.9,1.93,0,1.19.74,2.82,3.71,7.41,3.71,5.63,14.09,21.19,17.36,25.35,3.56-4.15,16.76-23.42,20.17-28.46,1.19-1.78,1.78-2.96,1.93-3.85-.3-1.04-2.08-1.33-4.45-1.93l-4.3-.74c-1.33-1.04-1.33-3.41.3-4.3,5.78.3,10.53.44,15.58.44s9.05-.15,14.39-.44c1.34.74,1.48,2.96.45,4.3l-4.3.89c-5.93,1.19-8.31,3.41-14.83,11.41-5.78,7.12-12.76,15.71-18.25,24.01-1.63,2.37-2.23,3.71-2.23,4.3,0,.74.59,2.22,2.52,5.19,8.9,12.89,18.1,26.53,24.92,35.42,4.15,5.63,7.42,7.41,13.2,8.3l3.71.59c1.04.89,1.04,3.56-.3,4.3-7.12-.3-13.5-.44-20.92-.44s-13.65.15-21.06.44c-1.19-.59-1.63-3.41-.3-4.3l5.34-1.04c1.93-.44,3.12-.89,3.12-1.93s-1.04-3.26-4.3-8.15l-2.52-3.71c-3.71-5.33-8.6-12.75-14.83-21.49-6.08,8-14.69,20.6-20.32,29.64-1.33,2.07-1.93,3.26-1.93,4.3s2.37,1.48,4.45,1.78l3.86.59c1.19,1.04,1.04,3.85-.3,4.3-5.04-.3-11.13-.44-17.21-.44-5.04,0-9.94.15-14.69.44-1.33-1.04-1.33-3.11-.59-4.3l4.01-.74c6.38-1.19,9.79-3.11,15.58-10.37l20.62-26.53c1.33-1.78,2.23-3.56,2.23-4.3s-.44-2.22-1.78-4.15c-6.97-9.93-16.47-24.9-22.1-32.91-4.45-6.37-7.42-9.04-12.02-10.08l-4.75-1.04Z"/>
  <path d="M88.82,40.68c-1.01,1.15-3.6,1.29-4.61.29-2.45-9.07-8.92-21.02-27.93-21.02s-36.71,12.96-36.71,42.47,19.15,45.63,37.71,45.63,26.05-12.09,30.09-21.45c1.3-1.3,3.6-.72,4.32.58-1.01,9.64-4.89,19.15-6.91,21.88-1.73.29-3.45.86-5.04,1.29-3.17,1.01-13.1,3.46-22.46,3.46-14.25,0-26.49-2.88-36.85-9.64C8.78,96.53,0,83.43,0,64.58c0-16.84,7.48-29.94,18.14-38.15,10.65-8.06,25.19-12.23,39.73-12.23,8.21,0,18.14,1.44,24.9,3.17l4.03.86c.29,3.31.58,11.8,2.02,22.46Z"/>
  <path d="M142.07,87.75c0,7.2.29,12.38,2.45,14.83,1.73,2.02,4.03,3.17,15.55,3.17,15.98,0,18.28-.72,24.9-15.55,1.44-.72,3.74-.29,4.46.86-1.15,6.05-4.32,16.98-6.05,20.87-6.05-.29-18.43-.43-34.55-.43h-14.97c-7.34,0-14.54.14-20.58.43-1.15-.58-1.58-3.45-.29-4.17l4.32-.72c6.77-1.15,8.06-1.29,8.06-16.27v-53.55c0-14.97-1.3-15.4-8.06-16.41l-4.03-.58c-1.01-.72-1.01-3.6.29-4.17,7.2.29,13.68.43,20.3.43s12.81-.14,19.15-.43c1.3.58,1.44,3.46.29,4.17l-3.17.58c-6.77,1.15-8.06,1.44-8.06,16.41v50.53Z"/>
  <path d="M234.18,77.17c-3.74,0-3.6,0-4.89,3.89l-5.76,17.27c-2.88,8.49-1.01,8.78,4.32,9.64l4.17.72c1.01,1.01.86,3.6-.29,4.17-4.61-.29-10.08-.29-15.98-.43-4.75,0-9.21.14-14.25.43-1.01-.72-1.15-2.88-.14-4.17l4.32-.72c4.17-.72,5.76-1.87,7.92-6.62,1.73-3.74,4.03-9.79,7.05-17.56l19.72-51.25c1.73-4.61,3.17-8.06,2.74-10.51,5.04-1.01,9.79-6.91,10.08-6.91,1.15,0,1.87.43,2.45,1.15,2.3,6.48,4.17,13.24,6.48,19.72l20.73,60.32c3.31,9.64,4.03,10.51,11.37,11.95l2.16.43c1.15,1.01,1.15,3.46.14,4.17-5.9-.29-11.23-.43-18.71-.43-6.19,0-12.52.29-17.56.43-1.15-.72-1.3-3.31-.43-4.17l3.17-.43c5.18-.72,5.9-1.58,3.74-7.63l-6.77-19.58c-1.3-3.89-1.87-3.89-5.9-3.89h-19.87ZM252.18,70.69c4.03,0,4.61-.29,3.45-3.74l-6.05-17.27c-2.59-7.63-3.45-10.94-4.17-11.95h-.29c-.58,1.01-2.02,5.18-4.46,11.95l-6.48,16.84c-1.44,4.17-1.15,4.17,2.3,4.17h15.69Z"/>
  <path d="M319.25,107.76c-2.59-3.02-4.46-12.96-4.32-21.88.86-1.44,3.31-1.58,4.46-.58,2.59,7.34,10.36,22.74,24.47,22.74,10.94,0,17.13-6.62,17.13-15.4,0-8.21-3.89-14.83-14.68-20.87l-6.19-3.45c-10.8-6.05-20.3-14.83-20.3-27.78,0-14.25,10.65-26.34,31.67-26.34,7.49,0,12.96,1.73,19.72,3.02,1.58,3.17,3.02,12.67,3.02,19.43-.72,1.3-3.31,1.44-4.61.43-2.16-7.48-7.2-17.13-19.43-17.13-11.52,0-16.27,7.48-16.27,15.11,0,6.05,4.17,12.52,13.68,17.56l8.92,4.75c9.36,4.89,19.72,13.82,19.72,28.36,0,16.41-12.52,28.07-33.4,28.07-13.24,0-20.73-4.32-23.61-6.05Z"/>
  <path d="M406.18,107.76c-2.59-3.02-4.46-12.96-4.32-21.88.86-1.44,3.31-1.58,4.46-.58,2.59,7.34,10.36,22.74,24.47,22.74,10.94,0,17.13-6.62,17.13-15.4,0-8.21-3.89-14.83-14.68-20.87l-6.19-3.45c-10.8-6.05-20.3-14.83-20.3-27.78,0-14.25,10.65-26.34,31.67-26.34,7.48,0,12.96,1.73,19.72,3.02,1.58,3.17,3.02,12.67,3.02,19.43-.72,1.3-3.31,1.44-4.61.43-2.16-7.48-7.2-17.13-19.43-17.13-11.52,0-16.27,7.48-16.27,15.11,0,6.05,4.17,12.52,13.68,17.56l8.92,4.75c9.36,4.89,19.72,13.82,19.72,28.36,0,16.41-12.52,28.07-33.4,28.07-13.24,0-20.73-4.32-23.61-6.05Z"/>
  <g>
    <path d="M55.48,161.05c-.63.72-2.25.81-2.88.18-1.53-5.66-5.57-13.13-17.44-13.13s-22.93,8.09-22.93,26.53,11.96,28.5,23.56,28.5,16.27-7.55,18.79-13.4c.81-.81,2.25-.45,2.7.36-.63,6.02-3.06,11.96-4.32,13.67-1.08.18-2.16.54-3.15.81-1.98.63-8.18,2.16-14.03,2.16-8.9,0-16.54-1.8-23.02-6.02-7.28-4.77-12.77-12.95-12.77-24.73,0-10.52,4.68-18.7,11.33-23.83,6.65-5.04,15.74-7.64,24.82-7.64,5.13,0,11.33.9,15.56,1.98l2.52.54c.18,2.07.36,7.37,1.26,14.03Z"/>
    <path d="M135.05,175.79c0,17.71-13.49,30.93-31.65,30.93-20.32,0-32.01-14.3-32.01-30.3,0-18.34,13.31-31.92,32.19-31.92,20.77,0,31.47,14.92,31.47,31.29ZM83.61,173.81c0,12.41,5.3,29.31,20.68,29.31,10.25,0,18.52-7.64,18.52-25.72,0-13.58-6.11-29.31-20.41-29.31-8.99,0-18.79,6.56-18.79,25.72Z"/>
    <path d="M207.96,189.45c0,2.7,0,13.31.27,15.38-.72.99-2.34,1.35-3.42,1.26-1.44-1.89-3.69-4.5-10.16-11.87l-21.04-24.01c-5.75-6.65-8.72-9.98-10.25-11.33-.27,0-.27.99-.27,5.75v17.53c0,6.74.09,15.02,1.62,17.71.81,1.35,2.34,1.98,4.59,2.25l1.98.27c.81.63.72,2.34-.18,2.61-3.33-.18-6.83-.27-10.25-.27-3.78,0-6.2.09-9.35.27-.72-.45-.9-1.98-.18-2.61l1.98-.45c1.71-.36,3.33-.63,3.96-2.07,1.17-2.79,1.17-10.61,1.17-17.71v-21.31c0-7.01.09-8.45-2.97-11.06-.99-.81-3.51-1.53-4.77-1.8l-1.35-.27c-.63-.54-.54-2.34.36-2.61,3.42.36,8.36.27,10.61.27,1.89,0,4.05-.09,6.2-.27,1.53,3.87,11.33,15.2,14.48,18.61l8.99,9.71c3.78,4.14,12.14,13.67,13.04,14.21.27-.27.27-.72.27-2.16v-17.53c0-6.74-.09-15.02-1.71-17.71-.81-1.35-2.25-1.98-4.5-2.25l-2.07-.27c-.81-.63-.72-2.34.18-2.61,3.51.18,6.83.27,10.34.27,3.87,0,6.2-.09,9.44-.27.72.45.9,1.98.18,2.61l-2.07.45c-1.71.36-3.24.63-3.87,2.07-1.26,2.79-1.26,10.61-1.26,17.71v21.49Z"/>
    <path d="M232.95,202.95c-1.62-1.89-2.79-8.09-2.7-13.67.54-.9,2.07-.99,2.79-.36,1.62,4.59,6.47,14.21,15.29,14.21,6.83,0,10.7-4.14,10.7-9.62,0-5.13-2.43-9.26-9.17-13.04l-3.87-2.16c-6.74-3.78-12.68-9.26-12.68-17.35,0-8.9,6.65-16.45,19.78-16.45,4.68,0,8.09,1.08,12.32,1.89.99,1.98,1.89,7.91,1.89,12.14-.45.81-2.07.9-2.88.27-1.35-4.68-4.49-10.7-12.14-10.7-7.19,0-10.16,4.68-10.16,9.44,0,3.78,2.61,7.82,8.54,10.97l5.57,2.97c5.84,3.06,12.32,8.63,12.32,17.71,0,10.25-7.82,17.53-20.86,17.53-8.27,0-12.95-2.7-14.75-3.78Z"/>
    <path d="M291.39,158.3c0-9.53-.81-9.71-5.04-10.43l-1.53-.27c-.63-.63-.54-2.16.18-2.52,3.6.18,7.64.27,11.6.27s8.09-.09,12.05-.27c.72.36.81,1.89.18,2.52l-1.98.27c-4.23.54-5.04.9-5.04,10.43v20.59c0,12.41,3.78,22.84,16.27,22.84,11.78,0,16.63-8.9,16.63-22.57v-11.24c0-6.74-.09-15.11-1.71-17.71-.81-1.35-2.25-1.98-4.5-2.34l-1.8-.27c-.81-.63-.72-2.25.18-2.52,3.06.18,6.47.27,9.98.27,3.78,0,6.2-.09,9.53-.27.72.45.9,1.89.18,2.52l-1.98.45c-1.71.36-3.33.72-3.96,2.16-1.26,2.7-1.26,10.61-1.26,17.71v10.7c0,8.18-1.26,15.74-5.93,20.77-4.68,5.04-11.42,6.74-17.62,6.74-8.45,0-14.39-1.8-18.52-5.75-4.05-3.87-5.93-10.16-5.93-19.24v-22.84Z"/>
    <path d="M378.24,190.45c0,4.5.18,7.73,1.53,9.26,1.08,1.26,2.52,1.98,9.71,1.98,9.98,0,11.42-.45,15.56-9.71.9-.45,2.34-.18,2.79.54-.72,3.78-2.7,10.61-3.78,13.04-3.78-.18-11.51-.27-21.58-.27h-9.35c-4.59,0-9.08.09-12.86.27-.72-.36-.99-2.16-.18-2.61l2.7-.45c4.23-.72,5.04-.81,5.04-10.16v-33.45c0-9.35-.81-9.62-5.04-10.25l-2.52-.36c-.63-.45-.63-2.25.18-2.61,4.5.18,8.54.27,12.68.27s8-.09,11.96-.27c.81.36.9,2.16.18,2.61l-1.98.36c-4.23.72-5.04.9-5.04,10.25v31.56Z"/>
    <path d="M431.55,154.71c0-3.78-.09-3.96-2.43-3.96h-5.04c-8.27,0-10.7.99-14.03,8.27-.63.54-2.52.27-2.88-.63,1.53-4.86,2.88-10.43,3.51-13.58.18-.27.54-.36.99-.36.36,0,.72.09.9.36.45,2.25,1.71,2.34,7.82,2.34h36.69c4.41,0,5.75-.27,6.83-2.34.36-.18.72-.36,1.08-.36.54,0,.99.18,1.17.45-.9,3.69-1.62,11.42-1.35,14.3-.45.72-1.98.9-2.79.27-1.17-7.01-2.88-8.72-12.5-8.72h-5.13c-2.34,0-2.43.18-2.43,3.96v38.84c0,9.53.81,9.8,5.04,10.25l3.24.36c.63.63.54,2.25-.18,2.61-5.21-.18-9.26-.27-13.22-.27s-8.18.09-13.94.27c-.72-.36-.81-2.16-.18-2.61l3.78-.45c4.23-.54,5.04-.63,5.04-10.16v-38.84Z"/>
    <path d="M497.28,192.34c0,9.53.81,9.8,5.04,10.34l1.98.27c.63.63.54,2.25-.18,2.61-3.96-.18-8-.27-11.96-.27s-8.18.09-12.14.27c-.72-.36-.81-1.98-.18-2.61l1.98-.27c4.23-.54,5.04-.81,5.04-10.34v-33.45c0-9.53-.81-9.8-5.04-10.34l-1.98-.27c-.63-.63-.54-2.25.18-2.61,3.96.18,8,.27,12.14.27s8-.09,11.96-.27c.72.36.81,1.98.18,2.61l-1.98.27c-4.23.54-5.04.81-5.04,10.34v33.45Z"/>
    <path d="M577.12,189.45c0,2.7,0,13.31.27,15.38-.72.99-2.34,1.35-3.42,1.26-1.44-1.89-3.69-4.5-10.16-11.87l-21.04-24.01c-5.75-6.65-8.72-9.98-10.25-11.33-.27,0-.27.99-.27,5.75v17.53c0,6.74.09,15.02,1.62,17.71.81,1.35,2.34,1.98,4.59,2.25l1.98.27c.81.63.72,2.34-.18,2.61-3.33-.18-6.83-.27-10.25-.27-3.78,0-6.2.09-9.35.27-.72-.45-.9-1.98-.18-2.61l1.98-.45c1.71-.36,3.33-.63,3.96-2.07,1.17-2.79,1.17-10.61,1.17-17.71v-21.31c0-7.01.09-8.45-2.97-11.06-.99-.81-3.51-1.53-4.76-1.8l-1.35-.27c-.63-.54-.54-2.34.36-2.61,3.42.36,8.36.27,10.61.27,1.89,0,4.05-.09,6.2-.27,1.53,3.87,11.33,15.2,14.48,18.61l8.99,9.71c3.78,4.14,12.14,13.67,13.04,14.21.27-.27.27-.72.27-2.16v-17.53c0-6.74-.09-15.02-1.71-17.71-.81-1.35-2.25-1.98-4.5-2.25l-2.07-.27c-.81-.63-.72-2.34.18-2.61,3.51.18,6.83.27,10.34.27,3.87,0,6.2-.09,9.44-.27.72.45.9,1.98.18,2.61l-2.07.45c-1.71.36-3.24.63-3.87,2.07-1.26,2.79-1.26,10.61-1.26,17.71v21.49Z"/>
    <path d="M655.16,195.93c0,3.15.45,5.48,2.16,6.29.27.36.27,1.08-.09,1.35-.99,0-2.61.36-4.32.72-5.57,1.35-12.32,2.43-17.44,2.43-10.79,0-20.95-2.88-27.69-9.89-5.3-5.49-7.91-13.04-7.91-20.59s2.61-15.29,8.27-21.13c6.39-6.74,16.19-10.61,28.68-10.61,4.23,0,8.81.72,11.96,1.35,2.07.45,4.68.81,5.76.81.09,2.7.72,7.28,1.17,14.3-.45.9-2.43.99-2.88.18-1.98-8.72-8.36-13.04-17.26-13.04-15.83,0-23.47,11.42-23.47,26.7,0,7.19,1.62,14.93,6.47,20.68s12.05,7.64,17.35,7.64c4.32,0,6.92-.72,8-2.07.54-.81.81-2.43.81-5.66v-3.24c0-6.38-.09-6.92-6.11-7.91l-3.24-.54c-.63-.63-.63-2.16.09-2.61,3.51.18,7.82.27,14.03.27,4.05,0,7.1-.09,10.97-.27.9.45.99,1.98.18,2.61l-1.62.27c-3.33.54-3.87,1.26-3.87,6.74v5.22Z"/>
  </g>
</svg>