<?xml version="1.0" encoding="UTF-8"?>
<svg id="Layer_1" data-name="Layer 1" xmlns="http://www.w3.org/2000/svg" viewBox="0 0 1739.73 128">
  <defs>
    <style>
      .cls-1 {
        fill: #600;
      }

      .cls-2 {
        fill: #fff;
      }
    </style>
  </defs>
  <rect class="cls-1" x="473.19" width="198.01" height="128"/>
  <path class="cls-2" d="M520.1,91.57c0,15.71,1.33,16.16,8.31,17.05l3.26.44c1.04,1.04.89,3.7-.3,4.3-6.53-.3-13.2-.44-19.73-.44s-13.5.15-20.03.44c-1.19-.59-1.33-3.26-.3-4.3l3.26-.44c6.97-.89,8.31-1.33,8.31-17.05v-55.14c0-15.71-1.33-16.16-8.31-17.04l-3.26-.45c-1.04-1.04-.89-3.7.3-4.3,6.53.3,13.2.44,20.03.44s13.2-.15,19.73-.44c1.19.59,1.33,3.26.3,4.3l-3.26.45c-6.97.89-8.31,1.33-8.31,17.04v55.14Z"/>
  <path class="cls-2" d="M552.13,18.94c-1.19-1.18-.89-3.7.44-4.3,6.68.3,12.46.44,19.28.44,7.86,0,14.39-.15,18.54-.44,1.33.59,1.33,3.26.3,4.3l-2.82.3c-2.97.3-4.9.89-4.9,1.93,0,1.19.74,2.82,3.71,7.41,3.71,5.63,14.09,21.19,17.36,25.35,3.56-4.15,16.76-23.42,20.17-28.46,1.19-1.78,1.78-2.96,1.93-3.85-.3-1.04-2.08-1.33-4.45-1.93l-4.3-.74c-1.33-1.04-1.33-3.41.3-4.3,5.78.3,10.53.44,15.58.44s9.05-.15,14.39-.44c1.34.74,1.48,2.96.45,4.3l-4.3.89c-5.93,1.19-8.31,3.41-14.83,11.41-5.78,7.12-12.76,15.71-18.25,24.01-1.63,2.37-2.23,3.71-2.23,4.3,0,.74.59,2.22,2.52,5.19,8.9,12.89,18.1,26.53,24.92,35.42,4.15,5.63,7.42,7.41,13.2,8.3l3.71.59c1.04.89,1.04,3.56-.3,4.3-7.12-.3-13.5-.44-20.92-.44s-13.65.15-21.06.44c-1.19-.59-1.63-3.41-.3-4.3l5.34-1.04c1.93-.44,3.12-.89,3.12-1.93s-1.04-3.26-4.3-8.15l-2.52-3.71c-3.71-5.33-8.6-12.75-14.83-21.49-6.08,8-14.69,20.6-20.32,29.64-1.33,2.07-1.93,3.26-1.93,4.3s2.37,1.48,4.45,1.78l3.86.59c1.19,1.04,1.04,3.85-.3,4.3-5.04-.3-11.13-.44-17.21-.44-5.04,0-9.94.15-14.69.44-1.33-1.04-1.33-3.11-.59-4.3l4.01-.74c6.38-1.19,9.79-3.11,15.58-10.37l20.62-26.53c1.33-1.78,2.23-3.56,2.23-4.3s-.44-2.22-1.78-4.15c-6.97-9.93-16.47-24.9-22.1-32.91-4.45-6.37-7.42-9.04-12.02-10.08l-4.75-1.04Z"/>
  <path d="M88.82,40.68c-1.01,1.15-3.6,1.29-4.61.29-2.45-9.07-8.92-21.02-27.93-21.02s-36.71,12.96-36.71,42.47,19.15,45.63,37.71,45.63,26.05-12.09,30.09-21.45c1.3-1.3,3.6-.72,4.32.58-1.01,9.64-4.89,19.15-6.91,21.88-1.73.29-3.45.86-5.04,1.29-3.17,1.01-13.1,3.46-22.46,3.46-14.25,0-26.49-2.88-36.85-9.64C8.78,96.53,0,83.43,0,64.58c0-16.84,7.48-29.94,18.14-38.15,10.65-8.06,25.19-12.23,39.73-12.23,8.21,0,18.14,1.44,24.9,3.17l4.03.86c.29,3.31.58,11.8,2.02,22.46Z"/>
  <path d="M142.07,87.75c0,7.2.29,12.38,2.45,14.83,1.73,2.02,4.03,3.17,15.55,3.17,15.98,0,18.28-.72,24.9-15.55,1.44-.72,3.74-.29,4.46.86-1.15,6.05-4.32,16.98-6.05,20.87-6.05-.29-18.43-.43-34.55-.43h-14.97c-7.34,0-14.54.14-20.58.43-1.15-.58-1.58-3.45-.29-4.17l4.32-.72c6.77-1.15,8.06-1.29,8.06-16.27v-53.55c0-14.97-1.3-15.4-8.06-16.41l-4.03-.58c-1.01-.72-1.01-3.6.29-4.17,7.2.29,13.68.43,20.3.43s12.81-.14,19.15-.43c1.3.58,1.44,3.46.29,4.17l-3.17.58c-6.77,1.15-8.06,1.44-8.06,16.41v50.53Z"/>
  <path d="M234.18,77.17c-3.74,0-3.6,0-4.89,3.89l-5.76,17.27c-2.88,8.49-1.01,8.78,4.32,9.64l4.17.72c1.01,1.01.86,3.6-.29,4.17-4.61-.29-10.08-.29-15.98-.43-4.75,0-9.21.14-14.25.43-1.01-.72-1.15-2.88-.14-4.17l4.32-.72c4.17-.72,5.76-1.87,7.92-6.62,1.73-3.74,4.03-9.79,7.05-17.56l19.72-51.25c1.73-4.61,3.17-8.06,2.74-10.51,5.04-1.01,9.79-6.91,10.08-6.91,1.15,0,1.87.43,2.45,1.15,2.3,6.48,4.17,13.24,6.48,19.72l20.73,60.32c3.31,9.64,4.03,10.51,11.37,11.95l2.16.43c1.15,1.01,1.15,3.46.14,4.17-5.9-.29-11.23-.43-18.71-.43-6.19,0-12.52.29-17.56.43-1.15-.72-1.3-3.31-.43-4.17l3.17-.43c5.18-.72,5.9-1.58,3.74-7.63l-6.77-19.58c-1.3-3.89-1.87-3.89-5.9-3.89h-19.87ZM252.18,70.69c4.03,0,4.61-.29,3.45-3.74l-6.05-17.27c-2.59-7.63-3.45-10.94-4.17-11.95h-.29c-.58,1.01-2.02,5.18-4.46,11.95l-6.48,16.84c-1.44,4.17-1.15,4.17,2.3,4.17h15.69Z"/>
  <path d="M319.25,107.76c-2.59-3.02-4.46-12.96-4.32-21.88.86-1.44,3.31-1.58,4.46-.58,2.59,7.34,10.36,22.74,24.47,22.74,10.94,0,17.13-6.62,17.13-15.4,0-8.21-3.89-14.83-14.68-20.87l-6.19-3.45c-10.8-6.05-20.3-14.83-20.3-27.78,0-14.25,10.65-26.34,31.67-26.34,7.49,0,12.96,1.73,19.72,3.02,1.58,3.17,3.02,12.67,3.02,19.43-.72,1.3-3.31,1.44-4.61.43-2.16-7.48-7.2-17.13-19.43-17.13-11.52,0-16.27,7.48-16.27,15.11,0,6.05,4.17,12.52,13.68,17.56l8.92,4.75c9.36,4.89,19.72,13.82,19.72,28.36,0,16.41-12.52,28.07-33.4,28.07-13.24,0-20.73-4.32-23.61-6.05Z"/>
  <path d="M406.18,107.76c-2.59-3.02-4.46-12.96-4.32-21.88.86-1.44,3.31-1.58,4.46-.58,2.59,7.34,10.36,22.74,24.47,22.74,10.94,0,17.13-6.62,17.13-15.4,0-8.21-3.89-14.83-14.68-20.87l-6.19-3.45c-10.8-6.05-20.3-14.83-20.3-27.78,0-14.25,10.65-26.34,31.67-26.34,7.48,0,12.96,1.73,19.72,3.02,1.58,3.17,3.02,12.67,3.02,19.43-.72,1.3-3.31,1.44-4.61.43-2.16-7.48-7.2-17.13-19.43-17.13-11.52,0-16.27,7.48-16.27,15.11,0,6.05,4.17,12.52,13.68,17.56l8.92,4.75c9.36,4.89,19.72,13.82,19.72,28.36,0,16.41-12.52,28.07-33.4,28.07-13.24,0-20.73-4.32-23.61-6.05Z"/>
  <path d="M770.01,40.68c-1.01,1.15-3.6,1.29-4.61.29-2.45-9.07-8.92-21.02-27.93-21.02s-36.71,12.96-36.71,42.47,19.14,45.63,37.71,45.63,26.05-12.09,30.09-21.45c1.29-1.3,3.6-.72,4.32.58-1.01,9.64-4.89,19.15-6.91,21.88-1.73.29-3.45.86-5.04,1.29-3.17,1.01-13.1,3.46-22.46,3.46-14.25,0-26.49-2.88-36.85-9.64-11.66-7.63-20.44-20.73-20.44-39.59,0-16.84,7.48-29.94,18.14-38.15,10.65-8.06,25.19-12.23,39.73-12.23,8.21,0,18.14,1.44,24.9,3.17l4.03.86c.29,3.31.58,11.8,2.01,22.46Z"/>
  <path d="M897.39,64.29c0,28.36-21.59,49.52-50.67,49.52-32.53,0-51.24-22.89-51.24-48.51,0-29.37,21.31-51.1,51.53-51.1,33.25,0,50.38,23.89,50.38,50.09ZM815.06,61.12c0,19.86,8.49,46.93,33.11,46.93,16.41,0,29.65-12.23,29.65-41.17,0-21.74-9.79-46.93-32.68-46.93-14.39,0-30.08,10.51-30.08,41.17Z"/>
  <path d="M1014.12,86.16c0,4.32,0,21.31.43,24.62-1.15,1.58-3.74,2.16-5.47,2.01-2.3-3.02-5.9-7.2-16.27-19l-33.68-38.43c-9.21-10.65-13.96-15.98-16.41-18.14-.43,0-.43,1.59-.43,9.21v28.07c0,10.8.14,24.04,2.59,28.36,1.3,2.16,3.74,3.17,7.34,3.6l3.17.43c1.29,1.01,1.15,3.74-.29,4.17-5.33-.29-10.94-.43-16.41-.43-6.04,0-9.93.14-14.97.43-1.15-.72-1.44-3.17-.29-4.17l3.17-.72c2.74-.58,5.33-1.01,6.33-3.31,1.87-4.46,1.87-16.98,1.87-28.36v-34.12c0-11.23.14-13.53-4.75-17.71-1.58-1.29-5.61-2.45-7.63-2.88l-2.16-.43c-1.01-.86-.86-3.74.58-4.17,5.47.58,13.39.43,16.99.43,3.02,0,6.48-.14,9.93-.43,2.45,6.19,18.14,24.33,23.18,29.8l14.39,15.55c6.05,6.62,19.43,21.88,20.87,22.74.43-.43.43-1.15.43-3.45v-28.07c0-10.8-.14-24.04-2.74-28.36-1.29-2.16-3.6-3.17-7.2-3.6l-3.31-.43c-1.3-1.01-1.15-3.74.29-4.17,5.61.29,10.94.43,16.55.43,6.19,0,9.93-.14,15.12-.43,1.15.72,1.44,3.17.29,4.17l-3.31.72c-2.74.58-5.18,1.01-6.19,3.31-2.02,4.46-2.02,16.99-2.02,28.36v34.4Z"/>
  <path d="M1054.13,107.76c-2.59-3.02-4.46-12.96-4.32-21.88.86-1.44,3.31-1.58,4.46-.58,2.59,7.34,10.36,22.74,24.47,22.74,10.94,0,17.13-6.62,17.13-15.4,0-8.21-3.89-14.83-14.68-20.87l-6.19-3.45c-10.8-6.05-20.3-14.83-20.3-27.78,0-14.25,10.65-26.34,31.67-26.34,7.48,0,12.96,1.73,19.72,3.02,1.58,3.17,3.02,12.67,3.02,19.43-.72,1.3-3.31,1.44-4.61.43-2.16-7.48-7.2-17.13-19.43-17.13-11.52,0-16.27,7.48-16.27,15.11,0,6.05,4.17,12.52,13.68,17.56l8.92,4.75c9.36,4.89,19.72,13.82,19.72,28.36,0,16.41-12.52,28.07-33.4,28.07-13.24,0-20.73-4.32-23.61-6.05Z"/>
  <path d="M1147.69,36.29c0-15.26-1.3-15.55-8.06-16.7l-2.45-.43c-1.01-1.01-.86-3.46.29-4.03,5.76.29,12.23.43,18.57.43s12.96-.14,19.29-.43c1.15.58,1.3,3.02.29,4.03l-3.17.43c-6.76.86-8.06,1.44-8.06,16.7v32.96c0,19.87,6.05,36.56,26.05,36.56,18.86,0,26.63-14.25,26.63-36.13v-17.99c0-10.8-.14-24.18-2.74-28.36-1.3-2.16-3.6-3.17-7.2-3.74l-2.88-.43c-1.3-1.01-1.15-3.6.29-4.03,4.89.29,10.36.43,15.98.43,6.04,0,9.93-.14,15.26-.43,1.15.72,1.44,3.02.29,4.03l-3.17.72c-2.74.58-5.33,1.15-6.34,3.46-2.01,4.32-2.01,16.99-2.01,28.36v17.13c0,13.1-2.01,25.19-9.5,33.25-7.49,8.06-18.28,10.8-28.21,10.8-13.53,0-23.03-2.88-29.65-9.21-6.48-6.19-9.5-16.27-9.5-30.8v-36.56Z"/>
  <path d="M1286.73,87.75c0,7.2.29,12.38,2.45,14.83,1.73,2.02,4.03,3.17,15.55,3.17,15.98,0,18.28-.72,24.9-15.55,1.44-.72,3.74-.29,4.46.86-1.15,6.05-4.32,16.98-6.05,20.87-6.04-.29-18.43-.43-34.55-.43h-14.97c-7.34,0-14.54.14-20.58.43-1.15-.58-1.58-3.45-.29-4.17l4.32-.72c6.77-1.15,8.06-1.29,8.06-16.27v-53.55c0-14.97-1.29-15.4-8.06-16.41l-4.03-.58c-1.01-.72-1.01-3.6.29-4.17,7.2.29,13.68.43,20.3.43s12.81-.14,19.14-.43c1.3.58,1.44,3.46.29,4.17l-3.17.58c-6.77,1.15-8.06,1.44-8.06,16.41v50.53Z"/>
  <path d="M1372.09,30.53c0-6.05-.14-6.33-3.89-6.33h-8.06c-13.24,0-17.13,1.58-22.45,13.24-1.01.86-4.03.43-4.61-1.01,2.45-7.77,4.61-16.7,5.61-21.74.29-.43.86-.58,1.58-.58.58,0,1.15.14,1.44.58.72,3.6,2.74,3.74,12.52,3.74h58.73c7.05,0,9.21-.43,10.94-3.74.58-.29,1.15-.58,1.73-.58.86,0,1.58.29,1.87.72-1.44,5.9-2.59,18.28-2.16,22.89-.72,1.15-3.17,1.44-4.46.43-1.87-11.23-4.61-13.96-20.01-13.96h-8.21c-3.74,0-3.89.29-3.89,6.33v62.19c0,15.26,1.3,15.69,8.06,16.41l5.18.58c1.01,1.01.86,3.6-.29,4.17-8.35-.29-14.83-.43-21.16-.43s-13.1.14-22.31.43c-1.15-.58-1.3-3.45-.29-4.17l6.05-.72c6.76-.86,8.06-1.01,8.06-16.27V30.53Z"/>
  <path d="M1477.3,90.77c0,15.26,1.29,15.69,8.06,16.56l3.17.43c1.01,1.01.86,3.6-.29,4.17-6.33-.29-12.81-.43-19.14-.43s-13.1.14-19.43.43c-1.15-.58-1.3-3.17-.29-4.17l3.17-.43c6.77-.86,8.06-1.3,8.06-16.56v-53.55c0-15.26-1.29-15.69-8.06-16.55l-3.17-.43c-1.01-1.01-.86-3.6.29-4.17,6.33.29,12.81.43,19.43.43s12.81-.14,19.14-.43c1.15.58,1.3,3.17.29,4.17l-3.17.43c-6.77.86-8.06,1.29-8.06,16.55v53.55Z"/>
  <path d="M1605.12,86.16c0,4.32,0,21.31.43,24.62-1.15,1.58-3.74,2.16-5.47,2.01-2.3-3.02-5.9-7.2-16.27-19l-33.68-38.43c-9.21-10.65-13.96-15.98-16.41-18.14-.43,0-.43,1.59-.43,9.21v28.07c0,10.8.14,24.04,2.59,28.36,1.3,2.16,3.74,3.17,7.34,3.6l3.17.43c1.29,1.01,1.15,3.74-.29,4.17-5.33-.29-10.94-.43-16.41-.43-6.04,0-9.93.14-14.97.43-1.15-.72-1.44-3.17-.29-4.17l3.17-.72c2.74-.58,5.33-1.01,6.33-3.31,1.87-4.46,1.87-16.98,1.87-28.36v-34.12c0-11.23.14-13.53-4.75-17.71-1.58-1.29-5.61-2.45-7.63-2.88l-2.16-.43c-1.01-.86-.86-3.74.58-4.17,5.47.58,13.39.43,16.99.43,3.02,0,6.48-.14,9.93-.43,2.45,6.19,18.14,24.33,23.18,29.8l14.39,15.55c6.05,6.62,19.43,21.88,20.87,22.74.43-.43.43-1.15.43-3.45v-28.07c0-10.8-.14-24.04-2.73-28.36-1.3-2.16-3.6-3.17-7.2-3.6l-3.31-.43c-1.3-1.01-1.15-3.74.29-4.17,5.61.29,10.94.43,16.55.43,6.19,0,9.93-.14,15.11-.43,1.15.72,1.44,3.17.29,4.17l-3.31.72c-2.74.58-5.18,1.01-6.19,3.31-2.02,4.46-2.02,16.99-2.02,28.36v34.4Z"/>
  <path d="M1730.06,96.53c0,5.04.72,8.78,3.46,10.08.43.58.43,1.73-.14,2.16-1.59,0-4.17.58-6.91,1.15-8.92,2.16-19.72,3.89-27.93,3.89-17.27,0-33.54-4.61-44.34-15.83-8.49-8.78-12.67-20.87-12.67-32.96s4.17-24.47,13.24-33.83c10.22-10.8,25.91-16.98,45.92-16.98,6.77,0,14.11,1.15,19.14,2.16,3.31.72,7.49,1.29,9.21,1.29.14,4.32,1.15,11.66,1.87,22.89-.72,1.44-3.89,1.58-4.61.29-3.17-13.96-13.38-20.87-27.64-20.87-25.34,0-37.57,18.28-37.57,42.75,0,11.52,2.59,23.9,10.36,33.11,7.77,9.21,19.29,12.23,27.78,12.23,6.91,0,11.08-1.15,12.81-3.31.86-1.29,1.29-3.89,1.29-9.07v-5.18c0-10.22-.14-11.08-9.79-12.67l-5.18-.86c-1.01-1.01-1.01-3.46.14-4.18,5.61.29,12.53.43,22.45.43,6.48,0,11.37-.14,17.56-.43,1.44.72,1.59,3.17.29,4.18l-2.59.43c-5.33.86-6.19,2.01-6.19,10.8v8.35Z"/>
</svg>