<?xml version="1.0" encoding="UTF-8"?>
<svg version="1.2" baseProfile="tiny-ps" xmlns="http://www.w3.org/2000/svg" viewBox="0 0 1024 1024" width="1024" height="1024">
  <title>Class IX Consulting</title>
  <rect width="1024" height="1024" fill="#ffffff"/>
  <path fill="#ff9600" d="M679.25,480.46c0-.26.02-.53.02-.79,0-59.69-49.74-108.08-111.1-108.08s-111.1,48.39-111.1,108.08c0,.27.02.53.02.79,35.93-.52,73.06-.79,111.08-.79s75.15.27,111.08.79Z"/>
  <path fill="#1a1a1a" d="M554.74,477.42l.93-8.57c.46-4.29.93-8.57.93-8.57l4.77,1.1c1.38.32,2.77-.16,3.94-1.27l-8.14-5.75c.91-14.33.42-28.36,2.53-42.23l6.14-.5c-1.17-3.59-6.03-2.7-5.89-7.37,0,0,.18-6.1.36-12.2.18-6.1.36-12.2.36-12.2l4.62-.16c.47-.02,1-.48,1.3-1.21-2.29-1.79-3.98-1.31-5.91-3.33-.04-4.81.45-9.54-.18-14.19-2.78-5.79-5.72-11.22-8.11-17.27-.69-1.74-.67-3.54.5-5.13l7.22,5.57-5.63-13.15c-.86-2.02-.86-4.38.34-6.29l7.74,6.76c-.23-1.62-.55-3.11-1.21-4.35l-4.44-8.43c-12.39,4.18-14.25,20.76-14.6,35.24-3.63-3.9-4.26-9.08-5.33-14.77-1.99,3.75-2.04,11.72-1.77,16.35l.77,12.8c-4.24-3.99-5.99-10.41-7.11-16.88-2.63,9.11-2.08,16.68-1.03,26.77-7.44-9.32-9.16-23.78-4.62-35.85,5.89-15.67,16.57-22.8,28.97-28.3-10.35-4.8-20.4,5.34-27.76,14.12-.34-6.53,2.31-11.24,4.92-16.88-7.53,3.2-11.12,20.69-15.52,28.66-1.28-4.76-1.34-9.61-.34-14.26l1.87-8.62c-6.51,7.33-7.7,21.93-12.05,31.44-2.62-7.45-1.4-14.78-.1-22.44-5.63,6.68-7.73,16.23-9.89,25.2-2.12-8.04-1.77-16.34.66-23.94,4.28-13.42,14.36-22.04,25.03-25.18,8.93-2.62,17.98-1.95,26.73,1.48,4.15,1.63,7.89,3.73,11.97,5.72-9.97-15.29-32.02-16.75-45.47-10.79,2.77-7.75,8.19-11.28,13.68-14.08-12.56-1.27-20.01,13.64-30.59,20.06.75-4.52,2.22-8.44,4.4-11.8l5.2-8.05c-7.02,2.29-12.42,7.31-17.75,12.72-.07.07-.44.31-.42.29.01-.02,0-.24,0-.45,4.07-16.46,15.96-26,29.12-25.43,11.72.51,22.41,6.81,31.72,15.77,5.27,5.07,9.73,10.82,14.29,17.22-1.05-4.72-3.05-8.58-5.32-12.27-7.66-12.45-20.74-21.67-32.69-25.81,5.51-4.94,10.82-3.7,17.04-3.13-3.92-3.25-8.4-4.8-12.98-4.34l-16.96,1.69c-2.02.2-3.92.15-5.99-.35,4.84-5.78,10.9-8.62,17.35-9.57.5-.23.56-.32.01-.5-7.08-3.45-13.51-3.03-20.92-2.81l-.12-.35c9.73-9.27,22.07-9.54,32.9-3.17,16.62,9.77,24.92,31.81,31.52,52.62-.2-15.56-7.18-32.43-14.86-43.6-4.13-6-9.16-10.36-14.61-14.07-2.28-1.55-4.33-3.07-6.26-5.24l-4.57-5.14-.09-.41c7.31-.56,11.87,2.93,18.39,6.98-2.79-8.28-8.57-14.21-13.25-20.05,9.44,1.17,18.25,9.58,22.81,20.08l5.8,13.36c-2.08-12.99-4.99-25.12-7.57-37.85,6.29,4.79,9.35,15.05,12.01,23.11.17.2.45.49.39.37.59-9.91.59-20.16,4.13-28.9l.45-.16c1.68,5.06,2.91,10.2,3.27,15.71l.93,14.04c2.49-7.75,6.08-19.97,12.34-24.03l-3.74,17.46c-.06.26-4.86,22.82-3,18.41,1.59-3.78,3.2-7.84,4.97-11.57,4.9-10.36,12.78-18.93,22.61-19.84-5.1,6.04-10.38,12.09-13.44,20.4,5.85-3.96,11.69-8.71,18.72-7.26-6.45,9.28-15.78,12.59-22.12,20.25-9.97,12.05-17.66,30.36-18.37,48.59,6.55-21.51,15.1-43.95,32.44-53.67,10.49-5.88,22.76-5.62,32.15,3.8-4.05-.01-7.61-.21-11.48.2-2.17.23-7.79,1.5-9.35,2.78-.06.05.02.1.16.26,6.52,1.7,11.45,3.73,16.69,9.29l-.1.6c-1.24.17-2.32.51-3.44.39l-18.55-1.87c-4.96-.5-9.71,1.22-13.99,4.37,6.41-.53,11.85-1.83,17.52,3.06-11.92,4.27-24.41,12.79-32.27,25.05-2.44,3.8-4.54,7.8-5.76,12.7,12.26-16.59,25.41-30.13,43.48-32.43,5.38-.68,10.43.13,15.42,2.72,13.04,6.78,16.37,22.87,16.03,22.62-.11-.08-.45-.31-.54-.4l-5.32-4.83c-3.36-3.05-7.62-5.81-11.36-7.21-.21-.08-.58-.12-.66-.15-.08-.03.05.24.15.45,3.8,5.51,8.17,11.49,9.18,19.35-2.92-1.85-5.33-4.04-7.79-6.42l-7.08-6.83c-3.89-3.75-9.42-7.22-14.48-6.91l-.31.41c5.28,2.9,10.47,6.78,12.65,13.43.04.11-.32.08-.47.02-10.39-4.01-21.57-4.08-31.89.38-4.91,2.12-9.43,5.25-12.93,10.67,10.7-5.96,21.77-10.07,33.56-8.38,7.76,1.11,15,4.68,21.14,10.96,9.05,9.24,13.51,24.87,9.69,39-2.19-8.77-3.67-15.84-8.2-22.51l-1.12-1.66c-.26-.02-.49-.03-.45-.03l.14.89c1.13,7.08,2.11,13.68-.3,21.01-1.08-2.6-2.04-5.2-2.85-8l-3.58-12.35c-.81-2.79-2.93-7.68-4.49-9.81l-.25-.35-.75-1.03-.3.22c1.98,7.21,4.05,14.93,1.57,22.39-3.86-7.47-5.37-14.49-9.22-21.63-2.86-5.3-6.59-7.46-6.23-6.69l.3.63c2.31,4.87,5.02,9.97,4.63,16.21-7.06-8.67-17.81-19.01-27.92-14.11,6.32,2.67,12.16,5.69,17.4,10.58l.32.3c6.09,5.68,10.81,13.45,12.98,22.84,2.41,10.46.08,22.66-5.77,29.71-.08-.45-.16-.85-.15-.93l.06-.7.05-.62.04-.56.04-.54.04-.6.05-.66.05-.69.04-.65.04-.59.03-.54.03-.57.03-.63.03-.66.03-.67c.01-.22.02-.43.02-.65v-.68s.01-.67.01-.67v-.67s0-.67,0-.67v-.67s-.01-.68-.01-.68l-.02-.66-.03-.67-.04-.67c-.01-.2-.03-.39-.04-.58l-.05-.56-.06-.56-.07-.62-.07-.62c-.02-.16-.05-.37-.07-.53l-.1-.57-.1-.58-.09-.53-.1-.49-.11-.51-.11-.53c-.03-.16-.09-.4-.13-.51l-.36-1.23-.16-.54-.23-.19-.16.72c-1.36,6.06-2.43,11.5-6.54,15.02l-.06-.92.02-.66.59-16.37c.06-1.52-.93-8.82-1.55-10.48l-.36-.35c-.92,5.71-1.65,10.84-5.08,14.9-.63-8.7-1-18.01-4.63-25.66-2.37-4.99-6.2-8.64-10.51-9.35-.34.82-7.12,13.99-5.18,12.31l7.71-6.66c1.35,2.63.81,5.68-.38,8.28l-3.55,7.76-.19.43-.17.39-.76,1.72.2.19c2.24-1.75,4.32-3.34,6.78-4.71,3.21,5.11-5.85,16.31-7.26,22.43-1.73,7.51-.03,21.21-.49,29.35l-4.8,5.14c1.43,1.45,2.81.83,4.3.38l.45-.14c.12-.04.32.35.33.52,0,0,.3,6.57.59,13.13.15,3.28.3,6.57.41,9.03s.18,4.1.18,4.1c-1.04,2.57-8.66,6.21-7.94,8.46.08.25.55.15.84.05l7.42-2.55c1.47,8.29.18,16.25,1.7,24.47.22,2.71.45,5.42.68,8.13.48,5.43,1,10.87,1.58,16.35,3.7-.4,7.19.45,10.62,2.19,6.66,3.38,7.81,1.51,12.43,3.22,1.7.63,2.68,2.69,2.28,5.03h-77.33c-.87-1.89.08-4.22,1.75-4.86,4.71-1.79,6.59-.24,12.45-3.2,3.47-1.75,6.96-2.68,10.83-2.4Z"/>
  <path fill="#29abe2" d="M267.83,676.87c90.87,65.79,234.39,80.15,408.83,33.41,166.21-44.53,236.22-109.14,294.94-222.39H164.76c.8,16.03,3.36,32.18,7.69,48.33,15.96,59.57,48.74,106.89,95.38,140.65Z"/>
  <path fill="#1a1a1a" d="M971.6,487.89h0c-58.72,113.26-128.73,177.86-294.94,222.39-174.43,46.74-317.95,32.38-408.83-33.41-46.64-33.77-79.42-81.09-95.38-140.65-4.33-16.16-6.89-32.3-7.69-48.33-6.61-132.98,108.4-258.55,348.34-322.84,61.93-16.59,130.43-28.13,175.73-28.55,88.23-3.16,137.32,23.66,186.25,75.9l48.81-19.9c-25.23-42.01-51.27-93.55-68.75-132.75-54.99,9.86-173.45,24.04-313.58,61.59C176.55,219.13-41.63,415.11,8.11,600.74c17.44,65.1,67.48,118.86,147.14,152.54h0c40.06,16.94,87.61,28.81,142.29,34.48,96.99,10.06,216.4.63,356.13-34.48,7.98-2,16-4.07,24.11-6.25,123.83-33.18,246.55-83.61,292.34-101.73.49-1,.98-2.04,1.48-3.11,7.34-15.74,15.99-38.69,24.31-63.58,10.74-32.13,20.93-67.48,27.01-94.73l-51.32,4Z"/>
  <path fill="#c69c6d" d="M618.17,469.03c-16.17-.24-32.88-.37-49.99-.37s-33.82.13-49.99.37c-117.83,1.74-206.68,9.52-206.68,18.86,0,9.8,97.95,17.89,224.54,19.07,10.53.1,21.25.15,32.14.15s21.61-.05,32.14-.15c126.59-1.18,224.54-9.27,224.54-19.07s-88.86-17.11-206.68-18.86Z"/>
  <path fill="#1a1a1a" d="M415.45,685.78v-7.37c30.62-2.37,33.61-3.42,33.61-25.79v-104.48c0-22.63-2.99-23.69-33.61-26.05v-7.37h100.08v7.37c-30.99,2.37-33.98,3.42-33.98,26.05v104.48c0,22.63,2.99,23.42,33.98,25.79v7.37h-100.08Z"/>
  <path fill="#1a1a1a" d="M638.38,685.78v-7.37c23.15-1.84,25.39-4.47,18.67-13.16-8.59-10.26-25.02-30-48.17-55.79-17.55,19.21-33.98,37.37-46.31,52.9-8.59,11.05-5.6,13.95,19.42,16.05v7.37h-87.01v-7.37c22.41-1.58,32.86-5.53,43.69-15.26,13.82-12.63,28.75-27.9,61.24-63.16-19.42-22.11-36.22-40.79-48.55-54.74-16.06-17.63-20.91-21.05-48.17-23.16v-7.37h92.98v7.37c-23.15,1.58-23.9,4.47-17.92,11.58,11.95,14.74,25.77,30,42.2,47.9,14.56-15.79,28.01-30.79,37.72-42.9,8.96-11.32,6.35-14.47-18.3-16.58v-7.37h85.14v7.37c-28.01,2.63-34.73,4.74-50.79,20.79-12.32,12.37-19.79,20-45.56,47.37,20.17,22.37,39.21,44.21,56.76,63.42,17.92,20,25.39,22.9,52.28,24.74v7.37h-99.33Z"/>
</svg>
